<?xml version="1.0" encoding="utf-8" standalone="no"?>
<!DOCTYPE svg PUBLIC "-//W3C//DTD SVG 1.1//EN"
  "http://www.w3.org/Graphics/SVG/1.1/DTD/svg11.dtd">
<!-- Created with matplotlib (http://matplotlib.org/) -->
<svg height="343pt" version="1.1" viewBox="0 0 460 343" width="460pt" xmlns="http://www.w3.org/2000/svg" xmlns:xlink="http://www.w3.org/1999/xlink">
 <defs>
  <style type="text/css">
*{stroke-linecap:butt;stroke-linejoin:round;}
  </style>
 </defs>
 <g id="figure_1">
  <g id="patch_1">
   <path d="M 0 343.44 
L 460.8 343.44 
L 460.8 0 
L 0 0 
z
" style="fill:#ffffff;"/>
  </g>
  <g id="axes_1">
   <g id="patch_2">
    <path d="M 57.6 305.6616 
L 414.72 305.6616 
L 414.72 41.2128 
L 57.6 41.2128 
z
" style="fill:#ffffff;"/>
   </g>
   <g id="PolyCollection_1">
    <defs>
     <path d="M 73.832727 -221.569119 
L 73.832727 -216.878194 
L 81.562597 -212.696504 
L 89.292468 -140.436191 
L 97.022338 -137.96543 
L 104.752208 -134.844279 
L 112.482078 -139.418255 
L 120.211948 -139.150414 
L 127.941818 -139.753518 
L 135.671688 -140.449218 
L 143.401558 -138.503689 
L 151.131429 -132.683023 
L 158.861299 -136.104066 
L 166.591169 -135.632026 
L 174.321039 -136.867549 
L 182.050909 -134.024897 
L 189.780779 -136.416586 
L 197.510649 -133.767777 
L 205.240519 -132.332806 
L 212.97039 -132.951447 
L 220.70026 -132.826204 
L 228.43013 -129.18327 
L 236.16 -128.768723 
L 243.88987 -128.51375 
L 251.61974 -123.686262 
L 259.34961 -125.035448 
L 267.079481 -122.090929 
L 274.809351 -118.594725 
L 282.539221 -118.132479 
L 290.269091 -116.426843 
L 297.998961 -117.686429 
L 305.728831 -115.430322 
L 313.458701 -118.52657 
L 321.188571 -117.645932 
L 328.918442 -115.568754 
L 336.648312 -118.081818 
L 344.378182 -114.703064 
L 352.108052 -116.638101 
L 359.837922 -114.851293 
L 367.567792 -112.758338 
L 375.297662 -112.071546 
L 383.027532 -112.689985 
L 390.757403 -113.273678 
L 398.487273 -111.073893 
L 398.487273 -116.298229 
L 398.487273 -116.298229 
L 390.757403 -118.469802 
L 383.027532 -117.895649 
L 375.297662 -119.739012 
L 367.567792 -126.796672 
L 359.837922 -120.474879 
L 352.108052 -120.928249 
L 344.378182 -120.656651 
L 336.648312 -122.035204 
L 328.918442 -128.206364 
L 321.188571 -125.214642 
L 313.458701 -127.388006 
L 305.728831 -125.483635 
L 297.998961 -124.477782 
L 290.269091 -126.920352 
L 282.539221 -125.16441 
L 274.809351 -127.177285 
L 267.079481 -127.926716 
L 259.34961 -133.062027 
L 251.61974 -130.023079 
L 243.88987 -135.003933 
L 236.16 -133.66657 
L 228.43013 -134.485328 
L 220.70026 -138.032902 
L 212.97039 -135.843635 
L 205.240519 -136.48751 
L 197.510649 -140.120313 
L 189.780779 -140.374517 
L 182.050909 -146.541862 
L 174.321039 -145.17573 
L 166.591169 -143.969681 
L 158.861299 -141.400161 
L 151.131429 -161.459442 
L 143.401558 -143.086627 
L 135.671688 -143.431713 
L 127.941818 -149.866314 
L 120.211948 -147.742567 
L 112.482078 -146.274879 
L 104.752208 -162.95634 
L 97.022338 -146.099968 
L 89.292468 -155.86247 
L 81.562597 -216.898979 
L 73.832727 -221.569119 
z
" id="mfa7520a151" style="stroke:#808080;stroke-opacity:0.5;"/>
    </defs>
    <g clip-path="url(#pacc6f25be4)">
     <use style="fill:#808080;fill-opacity:0.5;stroke:#808080;stroke-opacity:0.5;" x="0" xlink:href="#mfa7520a151" y="343.44"/>
    </g>
   </g>
   <g id="PolyCollection_2">
    <defs>
     <path d="M 73.832727 -290.2068 
L 73.832727 -288.157376 
L 81.562597 -258.711345 
L 89.292468 -206.90151 
L 97.022338 -207.392353 
L 104.752208 -204.483355 
L 112.482078 -186.688358 
L 120.211948 -188.15744 
L 127.941818 -187.051698 
L 135.671688 -187.277782 
L 143.401558 -187.160854 
L 151.131429 -187.201582 
L 158.861299 -187.212648 
L 166.591169 -186.932117 
L 174.321039 -187.151563 
L 182.050909 -187.123071 
L 189.780779 -187.215796 
L 197.510649 -187.218021 
L 205.240519 -182.052337 
L 212.97039 -181.988215 
L 220.70026 -178.223854 
L 228.43013 -178.250663 
L 236.16 -178.211857 
L 243.88987 -176.959349 
L 251.61974 -168.300332 
L 259.34961 -167.36809 
L 267.079481 -167.2611 
L 274.809351 -137.602003 
L 282.539221 -137.617146 
L 290.269091 -137.593574 
L 297.998961 -137.569423 
L 305.728831 -136.947733 
L 313.458701 -136.133962 
L 321.188571 -136.135276 
L 328.918442 -136.463247 
L 336.648312 -136.278349 
L 344.378182 -136.345694 
L 352.108052 -135.051071 
L 359.837922 -135.227199 
L 367.567792 -135.171382 
L 375.297662 -135.574108 
L 383.027532 -135.524292 
L 390.757403 -134.534145 
L 398.487273 -134.525397 
L 398.487273 -137.172784 
L 398.487273 -137.172784 
L 390.757403 -137.155645 
L 383.027532 -137.658966 
L 375.297662 -137.642709 
L 367.567792 -137.986705 
L 359.837922 -137.830208 
L 352.108052 -138.996349 
L 344.378182 -139.463708 
L 336.648312 -139.564614 
L 328.918442 -139.547529 
L 321.188571 -139.858711 
L 313.458701 -139.868416 
L 305.728831 -140.892125 
L 297.998961 -140.606047 
L 290.269091 -140.598677 
L 282.539221 -140.491202 
L 274.809351 -140.993003 
L 267.079481 -171.878466 
L 259.34961 -171.846985 
L 251.61974 -172.366259 
L 243.88987 -179.489425 
L 236.16 -181.047666 
L 228.43013 -181.227009 
L 220.70026 -181.220257 
L 212.97039 -185.133061 
L 205.240519 -185.161232 
L 197.510649 -189.107395 
L 189.780779 -188.958591 
L 182.050909 -189.177172 
L 174.321039 -189.249367 
L 166.591169 -189.091246 
L 158.861299 -189.154715 
L 151.131429 -189.174177 
L 143.401558 -189.483396 
L 135.671688 -189.341295 
L 127.941818 -189.491871 
L 120.211948 -189.988679 
L 112.482078 -189.762902 
L 104.752208 -207.039432 
L 97.022338 -209.424702 
L 89.292468 -208.841593 
L 81.562597 -261.096851 
L 73.832727 -290.2068 
z
" id="m39c9d28b0b" style="stroke:#808080;stroke-opacity:0.5;"/>
    </defs>
    <g clip-path="url(#pacc6f25be4)">
     <use style="fill:#808080;fill-opacity:0.5;stroke:#808080;stroke-opacity:0.5;" x="0" xlink:href="#m39c9d28b0b" y="343.44"/>
    </g>
   </g>
   <g id="PolyCollection_3">
    <defs>
     <path d="M 73.832727 -200.917917 
L 73.832727 -199.588365 
L 81.562597 -179.472598 
L 89.292468 -144.007872 
L 97.022338 -150.97494 
L 104.752208 -150.97494 
L 112.482078 -151.458425 
L 120.211948 -151.458425 
L 127.941818 -151.196688 
L 135.671688 -151.196688 
L 143.401558 -151.196688 
L 151.131429 -151.383961 
L 158.861299 -151.383961 
L 166.591169 -151.383961 
L 174.321039 -151.383961 
L 182.050909 -150.821319 
L 189.780779 -150.821319 
L 197.510649 -150.821319 
L 205.240519 -143.482714 
L 212.97039 -143.482714 
L 220.70026 -137.61797 
L 228.43013 -137.61797 
L 236.16 -137.61797 
L 243.88987 -137.669927 
L 251.61974 -132.033117 
L 259.34961 -131.49151 
L 267.079481 -131.49151 
L 274.809351 -103.639171 
L 282.539221 -103.70207 
L 290.269091 -103.70207 
L 297.998961 -103.70207 
L 305.728831 -103.041266 
L 313.458701 -103.088796 
L 321.188571 -103.088796 
L 328.918442 -103.179167 
L 336.648312 -103.179167 
L 344.378182 -100.662314 
L 352.108052 -99.629356 
L 359.837922 -99.746117 
L 367.567792 -98.844596 
L 375.297662 -98.844596 
L 383.027532 -98.844596 
L 390.757403 -98.826181 
L 398.487273 -98.826181 
L 398.487273 -101.822797 
L 398.487273 -101.822797 
L 390.757403 -101.822797 
L 383.027532 -101.720475 
L 375.297662 -101.720475 
L 367.567792 -101.720475 
L 359.837922 -103.126277 
L 352.108052 -103.117187 
L 344.378182 -104.584538 
L 336.648312 -108.024794 
L 328.918442 -108.024794 
L 321.188571 -108.694089 
L 313.458701 -108.694089 
L 305.728831 -108.624153 
L 297.998961 -108.827569 
L 290.269091 -108.827569 
L 282.539221 -108.827569 
L 274.809351 -108.974387 
L 267.079481 -134.06495 
L 259.34961 -134.06495 
L 251.61974 -134.202982 
L 243.88987 -140.606276 
L 236.16 -140.196739 
L 228.43013 -140.196739 
L 220.70026 -140.196739 
L 212.97039 -149.879265 
L 205.240519 -149.879265 
L 197.510649 -154.824026 
L 189.780779 -154.824026 
L 182.050909 -154.824026 
L 174.321039 -155.51992 
L 166.591169 -155.51992 
L 158.861299 -155.51992 
L 151.131429 -155.51992 
L 143.401558 -154.524168 
L 135.671688 -154.524168 
L 127.941818 -154.524168 
L 120.211948 -154.019139 
L 112.482078 -154.019139 
L 104.752208 -158.689299 
L 97.022338 -158.689299 
L 89.292468 -160.362289 
L 81.562597 -180.927994 
L 73.832727 -200.917917 
z
" id="m9d3e9ae67f" style="stroke:#808080;stroke-opacity:0.5;"/>
    </defs>
    <g clip-path="url(#pacc6f25be4)">
     <use style="fill:#808080;fill-opacity:0.5;stroke:#808080;stroke-opacity:0.5;" x="0" xlink:href="#m9d3e9ae67f" y="343.44"/>
    </g>
   </g>
   <g id="PolyCollection_4">
    <defs>
     <path d="M 73.832727 -168.859181 
L 73.832727 -167.889109 
L 81.562597 -168.779352 
L 89.292468 -67.320129 
L 97.022338 -66.368262 
L 104.752208 -66.136419 
L 112.482078 -66.376784 
L 120.211948 -66.655192 
L 127.941818 -64.613659 
L 135.671688 -63.540864 
L 143.401558 -61.85703 
L 151.131429 -58.339485 
L 158.861299 -57.010098 
L 166.591169 -57.220748 
L 174.321039 -55.784786 
L 182.050909 -55.254469 
L 189.780779 -55.786444 
L 197.510649 -56.15129 
L 205.240519 -49.7988 
L 212.97039 -49.7988 
L 220.70026 -52.317353 
L 228.43013 -53.14418 
L 236.16 -52.914566 
L 243.88987 -51.424952 
L 251.61974 -55.247497 
L 259.34961 -55.408067 
L 267.079481 -55.539407 
L 274.809351 -53.193356 
L 282.539221 -53.098882 
L 290.269091 -53.006419 
L 297.998961 -52.937039 
L 305.728831 -50.498981 
L 313.458701 -51.278054 
L 321.188571 -51.405932 
L 328.918442 -53.113876 
L 336.648312 -52.35737 
L 344.378182 -53.126525 
L 352.108052 -55.43959 
L 359.837922 -56.579902 
L 367.567792 -54.441236 
L 375.297662 -51.52455 
L 383.027532 -53.234922 
L 390.757403 -50.878263 
L 398.487273 -50.025305 
L 398.487273 -53.17024 
L 398.487273 -53.17024 
L 390.757403 -53.861062 
L 383.027532 -54.625583 
L 375.297662 -55.580852 
L 367.567792 -57.874558 
L 359.837922 -57.413924 
L 352.108052 -58.285752 
L 344.378182 -56.630177 
L 336.648312 -56.00658 
L 328.918442 -54.805364 
L 321.188571 -53.408879 
L 313.458701 -53.310218 
L 305.728831 -52.805592 
L 297.998961 -55.334573 
L 290.269091 -55.265186 
L 282.539221 -54.879072 
L 274.809351 -55.220913 
L 267.079481 -59.226279 
L 259.34961 -59.349221 
L 251.61974 -57.789829 
L 243.88987 -55.109852 
L 236.16 -54.895582 
L 228.43013 -56.016806 
L 220.70026 -57.028188 
L 212.97039 -52.154903 
L 205.240519 -52.154903 
L 197.510649 -58.572445 
L 189.780779 -58.635232 
L 182.050909 -59.217536 
L 174.321039 -59.526251 
L 166.591169 -61.328964 
L 158.861299 -61.581559 
L 151.131429 -62.937073 
L 143.401558 -65.292774 
L 135.671688 -65.98341 
L 127.941818 -66.630632 
L 120.211948 -68.64163 
L 112.482078 -68.257189 
L 104.752208 -68.631783 
L 97.022338 -69.079556 
L 89.292468 -69.117762 
L 81.562597 -169.806417 
L 73.832727 -168.859181 
z
" id="m10f554e7cf" style="stroke:#808080;stroke-opacity:0.5;"/>
    </defs>
    <g clip-path="url(#pacc6f25be4)">
     <use style="fill:#808080;fill-opacity:0.5;stroke:#808080;stroke-opacity:0.5;" x="0" xlink:href="#m10f554e7cf" y="343.44"/>
    </g>
   </g>
   <g id="matplotlib.axis_1">
    <g id="xtick_1">
     <g id="line2d_1">
      <defs>
       <path d="M 0 0 
L 0 3.5 
" id="m04b4a916f6" style="stroke:#000000;stroke-width:0.8;"/>
      </defs>
      <g>
       <use style="stroke:#000000;stroke-width:0.8;" x="66.102857" xlink:href="#m04b4a916f6" y="305.6616"/>
      </g>
     </g>
     <g id="text_1">
      <!-- 0 -->
      <defs>
       <path d="M 31.78125 66.40625 
Q 24.171875 66.40625 20.328125 58.90625 
Q 16.5 51.421875 16.5 36.375 
Q 16.5 21.390625 20.328125 13.890625 
Q 24.171875 6.390625 31.78125 6.390625 
Q 39.453125 6.390625 43.28125 13.890625 
Q 47.125 21.390625 47.125 36.375 
Q 47.125 51.421875 43.28125 58.90625 
Q 39.453125 66.40625 31.78125 66.40625 
z
M 31.78125 74.21875 
Q 44.046875 74.21875 50.515625 64.515625 
Q 56.984375 54.828125 56.984375 36.375 
Q 56.984375 17.96875 50.515625 8.265625 
Q 44.046875 -1.421875 31.78125 -1.421875 
Q 19.53125 -1.421875 13.0625 8.265625 
Q 6.59375 17.96875 6.59375 36.375 
Q 6.59375 54.828125 13.0625 64.515625 
Q 19.53125 74.21875 31.78125 74.21875 
z
" id="DejaVuSans-30"/>
      </defs>
      <g transform="translate(62.921607 320.260037)scale(0.1 -0.1)">
       <use xlink:href="#DejaVuSans-30"/>
      </g>
     </g>
    </g>
    <g id="xtick_2">
     <g id="line2d_2">
      <g>
       <use style="stroke:#000000;stroke-width:0.8;" x="143.401558" xlink:href="#m04b4a916f6" y="305.6616"/>
      </g>
     </g>
     <g id="text_2">
      <!-- 10 -->
      <defs>
       <path d="M 12.40625 8.296875 
L 28.515625 8.296875 
L 28.515625 63.921875 
L 10.984375 60.40625 
L 10.984375 69.390625 
L 28.421875 72.90625 
L 38.28125 72.90625 
L 38.28125 8.296875 
L 54.390625 8.296875 
L 54.390625 0 
L 12.40625 0 
z
" id="DejaVuSans-31"/>
      </defs>
      <g transform="translate(137.039058 320.260037)scale(0.1 -0.1)">
       <use xlink:href="#DejaVuSans-31"/>
       <use x="63.623047" xlink:href="#DejaVuSans-30"/>
      </g>
     </g>
    </g>
    <g id="xtick_3">
     <g id="line2d_3">
      <g>
       <use style="stroke:#000000;stroke-width:0.8;" x="220.70026" xlink:href="#m04b4a916f6" y="305.6616"/>
      </g>
     </g>
     <g id="text_3">
      <!-- 20 -->
      <defs>
       <path d="M 19.1875 8.296875 
L 53.609375 8.296875 
L 53.609375 0 
L 7.328125 0 
L 7.328125 8.296875 
Q 12.9375 14.109375 22.625 23.890625 
Q 32.328125 33.6875 34.8125 36.53125 
Q 39.546875 41.84375 41.421875 45.53125 
Q 43.3125 49.21875 43.3125 52.78125 
Q 43.3125 58.59375 39.234375 62.25 
Q 35.15625 65.921875 28.609375 65.921875 
Q 23.96875 65.921875 18.8125 64.3125 
Q 13.671875 62.703125 7.8125 59.421875 
L 7.8125 69.390625 
Q 13.765625 71.78125 18.9375 73 
Q 24.125 74.21875 28.421875 74.21875 
Q 39.75 74.21875 46.484375 68.546875 
Q 53.21875 62.890625 53.21875 53.421875 
Q 53.21875 48.921875 51.53125 44.890625 
Q 49.859375 40.875 45.40625 35.40625 
Q 44.1875 33.984375 37.640625 27.21875 
Q 31.109375 20.453125 19.1875 8.296875 
z
" id="DejaVuSans-32"/>
      </defs>
      <g transform="translate(214.33776 320.260037)scale(0.1 -0.1)">
       <use xlink:href="#DejaVuSans-32"/>
       <use x="63.623047" xlink:href="#DejaVuSans-30"/>
      </g>
     </g>
    </g>
    <g id="xtick_4">
     <g id="line2d_4">
      <g>
       <use style="stroke:#000000;stroke-width:0.8;" x="297.998961" xlink:href="#m04b4a916f6" y="305.6616"/>
      </g>
     </g>
     <g id="text_4">
      <!-- 30 -->
      <defs>
       <path d="M 40.578125 39.3125 
Q 47.65625 37.796875 51.625 33 
Q 55.609375 28.21875 55.609375 21.1875 
Q 55.609375 10.40625 48.1875 4.484375 
Q 40.765625 -1.421875 27.09375 -1.421875 
Q 22.515625 -1.421875 17.65625 -0.515625 
Q 12.796875 0.390625 7.625 2.203125 
L 7.625 11.71875 
Q 11.71875 9.328125 16.59375 8.109375 
Q 21.484375 6.890625 26.8125 6.890625 
Q 36.078125 6.890625 40.9375 10.546875 
Q 45.796875 14.203125 45.796875 21.1875 
Q 45.796875 27.640625 41.28125 31.265625 
Q 36.765625 34.90625 28.71875 34.90625 
L 20.21875 34.90625 
L 20.21875 43.015625 
L 29.109375 43.015625 
Q 36.375 43.015625 40.234375 45.921875 
Q 44.09375 48.828125 44.09375 54.296875 
Q 44.09375 59.90625 40.109375 62.90625 
Q 36.140625 65.921875 28.71875 65.921875 
Q 24.65625 65.921875 20.015625 65.03125 
Q 15.375 64.15625 9.8125 62.3125 
L 9.8125 71.09375 
Q 15.4375 72.65625 20.34375 73.4375 
Q 25.25 74.21875 29.59375 74.21875 
Q 40.828125 74.21875 47.359375 69.109375 
Q 53.90625 64.015625 53.90625 55.328125 
Q 53.90625 49.265625 50.4375 45.09375 
Q 46.96875 40.921875 40.578125 39.3125 
z
" id="DejaVuSans-33"/>
      </defs>
      <g transform="translate(291.636461 320.260037)scale(0.1 -0.1)">
       <use xlink:href="#DejaVuSans-33"/>
       <use x="63.623047" xlink:href="#DejaVuSans-30"/>
      </g>
     </g>
    </g>
    <g id="xtick_5">
     <g id="line2d_5">
      <g>
       <use style="stroke:#000000;stroke-width:0.8;" x="375.297662" xlink:href="#m04b4a916f6" y="305.6616"/>
      </g>
     </g>
     <g id="text_5">
      <!-- 40 -->
      <defs>
       <path d="M 37.796875 64.3125 
L 12.890625 25.390625 
L 37.796875 25.390625 
z
M 35.203125 72.90625 
L 47.609375 72.90625 
L 47.609375 25.390625 
L 58.015625 25.390625 
L 58.015625 17.1875 
L 47.609375 17.1875 
L 47.609375 0 
L 37.796875 0 
L 37.796875 17.1875 
L 4.890625 17.1875 
L 4.890625 26.703125 
z
" id="DejaVuSans-34"/>
      </defs>
      <g transform="translate(368.935162 320.260037)scale(0.1 -0.1)">
       <use xlink:href="#DejaVuSans-34"/>
       <use x="63.623047" xlink:href="#DejaVuSans-30"/>
      </g>
     </g>
    </g>
    <g id="text_6">
     <!-- Number of feature -->
     <defs>
      <path d="M 9.8125 72.90625 
L 23.09375 72.90625 
L 55.421875 11.921875 
L 55.421875 72.90625 
L 64.984375 72.90625 
L 64.984375 0 
L 51.703125 0 
L 19.390625 60.984375 
L 19.390625 0 
L 9.8125 0 
z
" id="DejaVuSans-4e"/>
      <path d="M 8.5 21.578125 
L 8.5 54.6875 
L 17.484375 54.6875 
L 17.484375 21.921875 
Q 17.484375 14.15625 20.5 10.265625 
Q 23.53125 6.390625 29.59375 6.390625 
Q 36.859375 6.390625 41.078125 11.03125 
Q 45.3125 15.671875 45.3125 23.6875 
L 45.3125 54.6875 
L 54.296875 54.6875 
L 54.296875 0 
L 45.3125 0 
L 45.3125 8.40625 
Q 42.046875 3.421875 37.71875 1 
Q 33.40625 -1.421875 27.6875 -1.421875 
Q 18.265625 -1.421875 13.375 4.4375 
Q 8.5 10.296875 8.5 21.578125 
z
M 31.109375 56 
z
" id="DejaVuSans-75"/>
      <path d="M 52 44.1875 
Q 55.375 50.25 60.0625 53.125 
Q 64.75 56 71.09375 56 
Q 79.640625 56 84.28125 50.015625 
Q 88.921875 44.046875 88.921875 33.015625 
L 88.921875 0 
L 79.890625 0 
L 79.890625 32.71875 
Q 79.890625 40.578125 77.09375 44.375 
Q 74.3125 48.1875 68.609375 48.1875 
Q 61.625 48.1875 57.5625 43.546875 
Q 53.515625 38.921875 53.515625 30.90625 
L 53.515625 0 
L 44.484375 0 
L 44.484375 32.71875 
Q 44.484375 40.625 41.703125 44.40625 
Q 38.921875 48.1875 33.109375 48.1875 
Q 26.21875 48.1875 22.15625 43.53125 
Q 18.109375 38.875 18.109375 30.90625 
L 18.109375 0 
L 9.078125 0 
L 9.078125 54.6875 
L 18.109375 54.6875 
L 18.109375 46.1875 
Q 21.1875 51.21875 25.484375 53.609375 
Q 29.78125 56 35.6875 56 
Q 41.65625 56 45.828125 52.96875 
Q 50 49.953125 52 44.1875 
z
" id="DejaVuSans-6d"/>
      <path d="M 48.6875 27.296875 
Q 48.6875 37.203125 44.609375 42.84375 
Q 40.53125 48.484375 33.40625 48.484375 
Q 26.265625 48.484375 22.1875 42.84375 
Q 18.109375 37.203125 18.109375 27.296875 
Q 18.109375 17.390625 22.1875 11.75 
Q 26.265625 6.109375 33.40625 6.109375 
Q 40.53125 6.109375 44.609375 11.75 
Q 48.6875 17.390625 48.6875 27.296875 
z
M 18.109375 46.390625 
Q 20.953125 51.265625 25.265625 53.625 
Q 29.59375 56 35.59375 56 
Q 45.5625 56 51.78125 48.09375 
Q 58.015625 40.1875 58.015625 27.296875 
Q 58.015625 14.40625 51.78125 6.484375 
Q 45.5625 -1.421875 35.59375 -1.421875 
Q 29.59375 -1.421875 25.265625 0.953125 
Q 20.953125 3.328125 18.109375 8.203125 
L 18.109375 0 
L 9.078125 0 
L 9.078125 75.984375 
L 18.109375 75.984375 
z
" id="DejaVuSans-62"/>
      <path d="M 56.203125 29.59375 
L 56.203125 25.203125 
L 14.890625 25.203125 
Q 15.484375 15.921875 20.484375 11.0625 
Q 25.484375 6.203125 34.421875 6.203125 
Q 39.59375 6.203125 44.453125 7.46875 
Q 49.3125 8.734375 54.109375 11.28125 
L 54.109375 2.78125 
Q 49.265625 0.734375 44.1875 -0.34375 
Q 39.109375 -1.421875 33.890625 -1.421875 
Q 20.796875 -1.421875 13.15625 6.1875 
Q 5.515625 13.8125 5.515625 26.8125 
Q 5.515625 40.234375 12.765625 48.109375 
Q 20.015625 56 32.328125 56 
Q 43.359375 56 49.78125 48.890625 
Q 56.203125 41.796875 56.203125 29.59375 
z
M 47.21875 32.234375 
Q 47.125 39.59375 43.09375 43.984375 
Q 39.0625 48.390625 32.421875 48.390625 
Q 24.90625 48.390625 20.390625 44.140625 
Q 15.875 39.890625 15.1875 32.171875 
z
" id="DejaVuSans-65"/>
      <path d="M 41.109375 46.296875 
Q 39.59375 47.171875 37.8125 47.578125 
Q 36.03125 48 33.890625 48 
Q 26.265625 48 22.1875 43.046875 
Q 18.109375 38.09375 18.109375 28.8125 
L 18.109375 0 
L 9.078125 0 
L 9.078125 54.6875 
L 18.109375 54.6875 
L 18.109375 46.1875 
Q 20.953125 51.171875 25.484375 53.578125 
Q 30.03125 56 36.53125 56 
Q 37.453125 56 38.578125 55.875 
Q 39.703125 55.765625 41.0625 55.515625 
z
" id="DejaVuSans-72"/>
      <path id="DejaVuSans-20"/>
      <path d="M 30.609375 48.390625 
Q 23.390625 48.390625 19.1875 42.75 
Q 14.984375 37.109375 14.984375 27.296875 
Q 14.984375 17.484375 19.15625 11.84375 
Q 23.34375 6.203125 30.609375 6.203125 
Q 37.796875 6.203125 41.984375 11.859375 
Q 46.1875 17.53125 46.1875 27.296875 
Q 46.1875 37.015625 41.984375 42.703125 
Q 37.796875 48.390625 30.609375 48.390625 
z
M 30.609375 56 
Q 42.328125 56 49.015625 48.375 
Q 55.71875 40.765625 55.71875 27.296875 
Q 55.71875 13.875 49.015625 6.21875 
Q 42.328125 -1.421875 30.609375 -1.421875 
Q 18.84375 -1.421875 12.171875 6.21875 
Q 5.515625 13.875 5.515625 27.296875 
Q 5.515625 40.765625 12.171875 48.375 
Q 18.84375 56 30.609375 56 
z
" id="DejaVuSans-6f"/>
      <path d="M 37.109375 75.984375 
L 37.109375 68.5 
L 28.515625 68.5 
Q 23.6875 68.5 21.796875 66.546875 
Q 19.921875 64.59375 19.921875 59.515625 
L 19.921875 54.6875 
L 34.71875 54.6875 
L 34.71875 47.703125 
L 19.921875 47.703125 
L 19.921875 0 
L 10.890625 0 
L 10.890625 47.703125 
L 2.296875 47.703125 
L 2.296875 54.6875 
L 10.890625 54.6875 
L 10.890625 58.5 
Q 10.890625 67.625 15.140625 71.796875 
Q 19.390625 75.984375 28.609375 75.984375 
z
" id="DejaVuSans-66"/>
      <path d="M 34.28125 27.484375 
Q 23.390625 27.484375 19.1875 25 
Q 14.984375 22.515625 14.984375 16.5 
Q 14.984375 11.71875 18.140625 8.90625 
Q 21.296875 6.109375 26.703125 6.109375 
Q 34.1875 6.109375 38.703125 11.40625 
Q 43.21875 16.703125 43.21875 25.484375 
L 43.21875 27.484375 
z
M 52.203125 31.203125 
L 52.203125 0 
L 43.21875 0 
L 43.21875 8.296875 
Q 40.140625 3.328125 35.546875 0.953125 
Q 30.953125 -1.421875 24.3125 -1.421875 
Q 15.921875 -1.421875 10.953125 3.296875 
Q 6 8.015625 6 15.921875 
Q 6 25.140625 12.171875 29.828125 
Q 18.359375 34.515625 30.609375 34.515625 
L 43.21875 34.515625 
L 43.21875 35.40625 
Q 43.21875 41.609375 39.140625 45 
Q 35.0625 48.390625 27.6875 48.390625 
Q 23 48.390625 18.546875 47.265625 
Q 14.109375 46.140625 10.015625 43.890625 
L 10.015625 52.203125 
Q 14.9375 54.109375 19.578125 55.046875 
Q 24.21875 56 28.609375 56 
Q 40.484375 56 46.34375 49.84375 
Q 52.203125 43.703125 52.203125 31.203125 
z
" id="DejaVuSans-61"/>
      <path d="M 18.3125 70.21875 
L 18.3125 54.6875 
L 36.8125 54.6875 
L 36.8125 47.703125 
L 18.3125 47.703125 
L 18.3125 18.015625 
Q 18.3125 11.328125 20.140625 9.421875 
Q 21.96875 7.515625 27.59375 7.515625 
L 36.8125 7.515625 
L 36.8125 0 
L 27.59375 0 
Q 17.1875 0 13.234375 3.875 
Q 9.28125 7.765625 9.28125 18.015625 
L 9.28125 47.703125 
L 2.6875 47.703125 
L 2.6875 54.6875 
L 9.28125 54.6875 
L 9.28125 70.21875 
z
" id="DejaVuSans-74"/>
     </defs>
     <g transform="translate(189.91625 333.938162)scale(0.1 -0.1)">
      <use xlink:href="#DejaVuSans-4e"/>
      <use x="74.804688" xlink:href="#DejaVuSans-75"/>
      <use x="138.183594" xlink:href="#DejaVuSans-6d"/>
      <use x="235.595703" xlink:href="#DejaVuSans-62"/>
      <use x="299.072266" xlink:href="#DejaVuSans-65"/>
      <use x="360.595703" xlink:href="#DejaVuSans-72"/>
      <use x="401.708984" xlink:href="#DejaVuSans-20"/>
      <use x="433.496094" xlink:href="#DejaVuSans-6f"/>
      <use x="494.677734" xlink:href="#DejaVuSans-66"/>
      <use x="529.882812" xlink:href="#DejaVuSans-20"/>
      <use x="561.669922" xlink:href="#DejaVuSans-66"/>
      <use x="596.875" xlink:href="#DejaVuSans-65"/>
      <use x="658.398438" xlink:href="#DejaVuSans-61"/>
      <use x="719.677734" xlink:href="#DejaVuSans-74"/>
      <use x="758.886719" xlink:href="#DejaVuSans-75"/>
      <use x="822.265625" xlink:href="#DejaVuSans-72"/>
      <use x="863.347656" xlink:href="#DejaVuSans-65"/>
     </g>
    </g>
   </g>
   <g id="matplotlib.axis_2">
    <g id="ytick_1">
     <g id="line2d_6">
      <defs>
       <path d="M 0 0 
L -3.5 0 
" id="m43e298035a" style="stroke:#000000;stroke-width:0.8;"/>
      </defs>
      <g>
       <use style="stroke:#000000;stroke-width:0.8;" x="57.6" xlink:href="#m43e298035a" y="293.880684"/>
      </g>
     </g>
     <g id="text_7">
      <!-- 15 -->
      <defs>
       <path d="M 10.796875 72.90625 
L 49.515625 72.90625 
L 49.515625 64.59375 
L 19.828125 64.59375 
L 19.828125 46.734375 
Q 21.96875 47.46875 24.109375 47.828125 
Q 26.265625 48.1875 28.421875 48.1875 
Q 40.625 48.1875 47.75 41.5 
Q 54.890625 34.8125 54.890625 23.390625 
Q 54.890625 11.625 47.5625 5.09375 
Q 40.234375 -1.421875 26.90625 -1.421875 
Q 22.3125 -1.421875 17.546875 -0.640625 
Q 12.796875 0.140625 7.71875 1.703125 
L 7.71875 11.625 
Q 12.109375 9.234375 16.796875 8.0625 
Q 21.484375 6.890625 26.703125 6.890625 
Q 35.15625 6.890625 40.078125 11.328125 
Q 45.015625 15.765625 45.015625 23.390625 
Q 45.015625 31 40.078125 35.4375 
Q 35.15625 39.890625 26.703125 39.890625 
Q 22.75 39.890625 18.8125 39.015625 
Q 14.890625 38.140625 10.796875 36.28125 
z
" id="DejaVuSans-35"/>
      </defs>
      <g transform="translate(37.875 297.679903)scale(0.1 -0.1)">
       <use xlink:href="#DejaVuSans-31"/>
       <use x="63.623047" xlink:href="#DejaVuSans-35"/>
      </g>
     </g>
    </g>
    <g id="ytick_2">
     <g id="line2d_7">
      <g>
       <use style="stroke:#000000;stroke-width:0.8;" x="57.6" xlink:href="#m43e298035a" y="246.153638"/>
      </g>
     </g>
     <g id="text_8">
      <!-- 20 -->
      <g transform="translate(37.875 249.952857)scale(0.1 -0.1)">
       <use xlink:href="#DejaVuSans-32"/>
       <use x="63.623047" xlink:href="#DejaVuSans-30"/>
      </g>
     </g>
    </g>
    <g id="ytick_3">
     <g id="line2d_8">
      <g>
       <use style="stroke:#000000;stroke-width:0.8;" x="57.6" xlink:href="#m43e298035a" y="198.426592"/>
      </g>
     </g>
     <g id="text_9">
      <!-- 25 -->
      <g transform="translate(37.875 202.225811)scale(0.1 -0.1)">
       <use xlink:href="#DejaVuSans-32"/>
       <use x="63.623047" xlink:href="#DejaVuSans-35"/>
      </g>
     </g>
    </g>
    <g id="ytick_4">
     <g id="line2d_9">
      <g>
       <use style="stroke:#000000;stroke-width:0.8;" x="57.6" xlink:href="#m43e298035a" y="150.699547"/>
      </g>
     </g>
     <g id="text_10">
      <!-- 30 -->
      <g transform="translate(37.875 154.498765)scale(0.1 -0.1)">
       <use xlink:href="#DejaVuSans-33"/>
       <use x="63.623047" xlink:href="#DejaVuSans-30"/>
      </g>
     </g>
    </g>
    <g id="ytick_5">
     <g id="line2d_10">
      <g>
       <use style="stroke:#000000;stroke-width:0.8;" x="57.6" xlink:href="#m43e298035a" y="102.972501"/>
      </g>
     </g>
     <g id="text_11">
      <!-- 35 -->
      <g transform="translate(37.875 106.77172)scale(0.1 -0.1)">
       <use xlink:href="#DejaVuSans-33"/>
       <use x="63.623047" xlink:href="#DejaVuSans-35"/>
      </g>
     </g>
    </g>
    <g id="ytick_6">
     <g id="line2d_11">
      <g>
       <use style="stroke:#000000;stroke-width:0.8;" x="57.6" xlink:href="#m43e298035a" y="55.245455"/>
      </g>
     </g>
     <g id="text_12">
      <!-- 40 -->
      <g transform="translate(37.875 59.044674)scale(0.1 -0.1)">
       <use xlink:href="#DejaVuSans-34"/>
       <use x="63.623047" xlink:href="#DejaVuSans-30"/>
      </g>
     </g>
    </g>
    <g id="text_13">
     <!-- BER(%) -->
     <defs>
      <path d="M 19.671875 34.8125 
L 19.671875 8.109375 
L 35.5 8.109375 
Q 43.453125 8.109375 47.28125 11.40625 
Q 51.125 14.703125 51.125 21.484375 
Q 51.125 28.328125 47.28125 31.5625 
Q 43.453125 34.8125 35.5 34.8125 
z
M 19.671875 64.796875 
L 19.671875 42.828125 
L 34.28125 42.828125 
Q 41.5 42.828125 45.03125 45.53125 
Q 48.578125 48.25 48.578125 53.8125 
Q 48.578125 59.328125 45.03125 62.0625 
Q 41.5 64.796875 34.28125 64.796875 
z
M 9.8125 72.90625 
L 35.015625 72.90625 
Q 46.296875 72.90625 52.390625 68.21875 
Q 58.5 63.53125 58.5 54.890625 
Q 58.5 48.1875 55.375 44.234375 
Q 52.25 40.28125 46.1875 39.3125 
Q 53.46875 37.75 57.5 32.78125 
Q 61.53125 27.828125 61.53125 20.40625 
Q 61.53125 10.640625 54.890625 5.3125 
Q 48.25 0 35.984375 0 
L 9.8125 0 
z
" id="DejaVuSans-42"/>
      <path d="M 9.8125 72.90625 
L 55.90625 72.90625 
L 55.90625 64.59375 
L 19.671875 64.59375 
L 19.671875 43.015625 
L 54.390625 43.015625 
L 54.390625 34.71875 
L 19.671875 34.71875 
L 19.671875 8.296875 
L 56.78125 8.296875 
L 56.78125 0 
L 9.8125 0 
z
" id="DejaVuSans-45"/>
      <path d="M 44.390625 34.1875 
Q 47.5625 33.109375 50.5625 29.59375 
Q 53.5625 26.078125 56.59375 19.921875 
L 66.609375 0 
L 56 0 
L 46.6875 18.703125 
Q 43.0625 26.03125 39.671875 28.421875 
Q 36.28125 30.8125 30.421875 30.8125 
L 19.671875 30.8125 
L 19.671875 0 
L 9.8125 0 
L 9.8125 72.90625 
L 32.078125 72.90625 
Q 44.578125 72.90625 50.734375 67.671875 
Q 56.890625 62.453125 56.890625 51.90625 
Q 56.890625 45.015625 53.6875 40.46875 
Q 50.484375 35.9375 44.390625 34.1875 
z
M 19.671875 64.796875 
L 19.671875 38.921875 
L 32.078125 38.921875 
Q 39.203125 38.921875 42.84375 42.21875 
Q 46.484375 45.515625 46.484375 51.90625 
Q 46.484375 58.296875 42.84375 61.546875 
Q 39.203125 64.796875 32.078125 64.796875 
z
" id="DejaVuSans-52"/>
      <path d="M 31 75.875 
Q 24.46875 64.65625 21.28125 53.65625 
Q 18.109375 42.671875 18.109375 31.390625 
Q 18.109375 20.125 21.3125 9.0625 
Q 24.515625 -2 31 -13.1875 
L 23.1875 -13.1875 
Q 15.875 -1.703125 12.234375 9.375 
Q 8.59375 20.453125 8.59375 31.390625 
Q 8.59375 42.28125 12.203125 53.3125 
Q 15.828125 64.359375 23.1875 75.875 
z
" id="DejaVuSans-28"/>
      <path d="M 72.703125 32.078125 
Q 68.453125 32.078125 66.03125 28.46875 
Q 63.625 24.859375 63.625 18.40625 
Q 63.625 12.0625 66.03125 8.421875 
Q 68.453125 4.78125 72.703125 4.78125 
Q 76.859375 4.78125 79.265625 8.421875 
Q 81.6875 12.0625 81.6875 18.40625 
Q 81.6875 24.8125 79.265625 28.4375 
Q 76.859375 32.078125 72.703125 32.078125 
z
M 72.703125 38.28125 
Q 80.421875 38.28125 84.953125 32.90625 
Q 89.5 27.546875 89.5 18.40625 
Q 89.5 9.28125 84.9375 3.921875 
Q 80.375 -1.421875 72.703125 -1.421875 
Q 64.890625 -1.421875 60.34375 3.921875 
Q 55.8125 9.28125 55.8125 18.40625 
Q 55.8125 27.59375 60.375 32.9375 
Q 64.9375 38.28125 72.703125 38.28125 
z
M 22.3125 68.015625 
Q 18.109375 68.015625 15.6875 64.375 
Q 13.28125 60.75 13.28125 54.390625 
Q 13.28125 47.953125 15.671875 44.328125 
Q 18.0625 40.71875 22.3125 40.71875 
Q 26.5625 40.71875 28.96875 44.328125 
Q 31.390625 47.953125 31.390625 54.390625 
Q 31.390625 60.6875 28.953125 64.34375 
Q 26.515625 68.015625 22.3125 68.015625 
z
M 66.40625 74.21875 
L 74.21875 74.21875 
L 28.609375 -1.421875 
L 20.796875 -1.421875 
z
M 22.3125 74.21875 
Q 30.03125 74.21875 34.609375 68.875 
Q 39.203125 63.53125 39.203125 54.390625 
Q 39.203125 45.171875 34.640625 39.84375 
Q 30.078125 34.515625 22.3125 34.515625 
Q 14.546875 34.515625 10.03125 39.859375 
Q 5.515625 45.21875 5.515625 54.390625 
Q 5.515625 63.484375 10.046875 68.84375 
Q 14.59375 74.21875 22.3125 74.21875 
z
" id="DejaVuSans-25"/>
      <path d="M 8.015625 75.875 
L 15.828125 75.875 
Q 23.140625 64.359375 26.78125 53.3125 
Q 30.421875 42.28125 30.421875 31.390625 
Q 30.421875 20.453125 26.78125 9.375 
Q 23.140625 -1.703125 15.828125 -13.1875 
L 8.015625 -13.1875 
Q 14.5 -2 17.703125 9.0625 
Q 20.90625 20.125 20.90625 31.390625 
Q 20.90625 42.671875 17.703125 53.65625 
Q 14.5 64.65625 8.015625 75.875 
z
" id="DejaVuSans-29"/>
     </defs>
     <g transform="translate(31.795312 192.153606)rotate(-90)scale(0.1 -0.1)">
      <use xlink:href="#DejaVuSans-42"/>
      <use x="68.603516" xlink:href="#DejaVuSans-45"/>
      <use x="131.787109" xlink:href="#DejaVuSans-52"/>
      <use x="201.269531" xlink:href="#DejaVuSans-28"/>
      <use x="240.283203" xlink:href="#DejaVuSans-25"/>
      <use x="335.302734" xlink:href="#DejaVuSans-29"/>
     </g>
    </g>
   </g>
   <g id="line2d_12">
    <path clip-path="url(#pacc6f25be4)" d="M 73.832727 124.216344 
L 81.562597 128.642259 
L 89.292468 195.29067 
L 97.022338 201.407301 
L 104.752208 194.53969 
L 112.482078 200.593433 
L 120.211948 199.993509 
L 127.941818 198.630084 
L 135.671688 201.499535 
L 143.401558 202.644842 
L 151.131429 196.368767 
L 158.861299 204.687886 
L 166.591169 203.639147 
L 174.321039 202.41836 
L 182.050909 203.15662 
L 189.780779 205.044448 
L 197.510649 206.495955 
L 205.240519 209.029842 
L 212.97039 209.042459 
L 220.70026 208.010447 
L 228.43013 211.605701 
L 236.16 212.222354 
L 243.88987 211.681159 
L 251.61974 216.585329 
L 259.34961 214.391262 
L 267.079481 218.431177 
L 274.809351 220.553995 
L 282.539221 221.791556 
L 290.269091 221.766403 
L 297.998961 222.357894 
L 305.728831 222.983021 
L 313.458701 220.482712 
L 321.188571 222.009713 
L 328.918442 221.552441 
L 336.648312 223.381489 
L 344.378182 225.760143 
L 352.108052 224.656825 
L 359.837922 225.776914 
L 367.567792 223.662495 
L 375.297662 227.534721 
L 383.027532 228.147183 
L 390.757403 227.56826 
L 398.487273 229.753939 
" style="fill:none;opacity:0.5;stroke:#ff0000;stroke-linecap:square;stroke-width:1.5;"/>
   </g>
   <g id="line2d_13">
    <defs>
     <path d="M 0 3 
C 0.795609 3 1.55874 2.683901 2.12132 2.12132 
C 2.683901 1.55874 3 0.795609 3 0 
C 3 -0.795609 2.683901 -1.55874 2.12132 -2.12132 
C 1.55874 -2.683901 0.795609 -3 0 -3 
C -0.795609 -3 -1.55874 -2.683901 -2.12132 -2.12132 
C -2.683901 -1.55874 -3 -0.795609 -3 0 
C -3 0.795609 -2.683901 1.55874 -2.12132 2.12132 
C -1.55874 2.683901 -0.795609 3 0 3 
z
" id="mde59a0659b" style="stroke:#ff0000;"/>
    </defs>
    <g clip-path="url(#pacc6f25be4)">
     <use style="fill:#ff0000;stroke:#ff0000;" x="398.487273" xlink:href="#mde59a0659b" y="229.753939"/>
    </g>
   </g>
   <g id="line2d_14">
    <defs>
     <path d="M 0 -3 
L -3 3 
L 3 3 
z
" id="m5f32a4db3f" style="stroke:#ff0000;stroke-linejoin:miter;"/>
    </defs>
    <g clip-path="url(#pacc6f25be4)">
     <use style="fill:#ff0000;stroke:#ff0000;stroke-linejoin:miter;" x="375.297662" xlink:href="#m5f32a4db3f" y="227.534721"/>
    </g>
   </g>
   <g id="line2d_15">
    <path clip-path="url(#pacc6f25be4)" d="M 73.832727 54.257912 
L 81.562597 83.535902 
L 89.292468 135.568449 
L 97.022338 135.031473 
L 104.752208 137.678606 
L 112.482078 155.21437 
L 120.211948 154.366941 
L 127.941818 155.168216 
L 135.671688 155.130462 
L 143.401558 155.117875 
L 151.131429 155.252121 
L 158.861299 155.256319 
L 166.591169 155.428319 
L 174.321039 155.239535 
L 182.050909 155.289879 
L 189.780779 155.352807 
L 197.510649 155.277292 
L 205.240519 159.833216 
L 212.97039 159.879362 
L 220.70026 163.717944 
L 228.43013 163.701164 
L 236.16 163.810239 
L 243.88987 165.215613 
L 251.61974 173.106705 
L 259.34961 173.832462 
L 267.079481 173.870217 
L 274.809351 204.142497 
L 282.539221 204.385826 
L 290.269091 204.343875 
L 297.998961 204.352265 
L 305.728831 204.520071 
L 313.458701 205.438811 
L 321.188571 205.443006 
L 328.918442 205.434612 
L 336.648312 205.518518 
L 344.378182 205.535299 
L 352.108052 206.41629 
L 359.837922 206.911297 
L 367.567792 206.860957 
L 375.297662 206.831591 
L 383.027532 206.848371 
L 390.757403 207.595105 
L 398.487273 207.59091 
" style="fill:none;opacity:0.5;stroke:#0000ff;stroke-linecap:square;stroke-width:1.5;"/>
   </g>
   <g id="line2d_16">
    <defs>
     <path d="M 0 3 
C 0.795609 3 1.55874 2.683901 2.12132 2.12132 
C 2.683901 1.55874 3 0.795609 3 0 
C 3 -0.795609 2.683901 -1.55874 2.12132 -2.12132 
C 1.55874 -2.683901 0.795609 -3 0 -3 
C -0.795609 -3 -1.55874 -2.683901 -2.12132 -2.12132 
C -2.683901 -1.55874 -3 -0.795609 -3 0 
C -3 0.795609 -2.683901 1.55874 -2.12132 2.12132 
C -1.55874 2.683901 -0.795609 3 0 3 
z
" id="mf1ec7847bd" style="stroke:#0000ff;"/>
    </defs>
    <g clip-path="url(#pacc6f25be4)">
     <use style="fill:#0000ff;stroke:#0000ff;" x="390.757403" xlink:href="#mf1ec7847bd" y="207.595105"/>
    </g>
   </g>
   <g id="line2d_17">
    <defs>
     <path d="M 0 -3 
L -3 3 
L 3 3 
z
" id="m6df373b439" style="stroke:#0000ff;stroke-linejoin:miter;"/>
    </defs>
    <g clip-path="url(#pacc6f25be4)">
     <use style="fill:#0000ff;stroke:#0000ff;stroke-linejoin:miter;" x="352.108052" xlink:href="#m6df373b439" y="206.860957"/>
    </g>
   </g>
   <g id="line2d_18">
    <path clip-path="url(#pacc6f25be4)" d="M 73.832727 143.186859 
L 81.562597 163.239704 
L 89.292468 191.254919 
L 97.022338 188.60788 
L 104.752208 188.60788 
L 112.482078 190.701218 
L 120.211948 190.701218 
L 127.941818 190.579572 
L 135.671688 190.579572 
L 143.401558 190.579572 
L 151.131429 189.988059 
L 158.861299 189.988059 
L 166.591169 189.988059 
L 174.321039 189.988059 
L 182.050909 190.617327 
L 189.780779 190.617327 
L 197.510649 190.617327 
L 205.240519 196.75901 
L 212.97039 196.75901 
L 220.70026 204.532646 
L 228.43013 204.532646 
L 236.16 204.532646 
L 243.88987 204.301899 
L 251.61974 210.321951 
L 259.34961 210.66177 
L 267.079481 210.66177 
L 274.809351 237.133221 
L 282.539221 237.17518 
L 290.269091 237.17518 
L 297.998961 237.17518 
L 305.728831 237.607291 
L 313.458701 237.548558 
L 321.188571 237.548558 
L 328.918442 237.838019 
L 336.648312 237.838019 
L 344.378182 240.816574 
L 352.108052 242.066728 
L 359.837922 242.003803 
L 367.567792 243.157465 
L 375.297662 243.157465 
L 383.027532 243.157465 
L 390.757403 243.115511 
L 398.487273 243.115511 
" style="fill:none;opacity:0.5;stroke:#008000;stroke-linecap:square;stroke-width:1.5;"/>
   </g>
   <g id="line2d_19">
    <defs>
     <path d="M 0 3 
C 0.795609 3 1.55874 2.683901 2.12132 2.12132 
C 2.683901 1.55874 3 0.795609 3 0 
C 3 -0.795609 2.683901 -1.55874 2.12132 -2.12132 
C 1.55874 -2.683901 0.795609 -3 0 -3 
C -0.795609 -3 -1.55874 -2.683901 -2.12132 -2.12132 
C -2.683901 -1.55874 -3 -0.795609 -3 0 
C -3 0.795609 -2.683901 1.55874 -2.12132 2.12132 
C -1.55874 2.683901 -0.795609 3 0 3 
z
" id="mc9dc735f10" style="stroke:#008000;"/>
    </defs>
    <g clip-path="url(#pacc6f25be4)">
     <use style="fill:#008000;stroke:#008000;" x="367.567792" xlink:href="#mc9dc735f10" y="243.157465"/>
    </g>
   </g>
   <g id="line2d_20">
    <defs>
     <path d="M 0 -3 
L -3 3 
L 3 3 
z
" id="m4055a03afb" style="stroke:#008000;stroke-linejoin:miter;"/>
    </defs>
    <g clip-path="url(#pacc6f25be4)">
     <use style="fill:#008000;stroke:#008000;stroke-linejoin:miter;" x="352.108052" xlink:href="#m4055a03afb" y="242.066728"/>
    </g>
   </g>
   <g id="line2d_21">
    <path clip-path="url(#pacc6f25be4)" d="M 73.832727 175.065855 
L 81.562597 174.147116 
L 89.292468 275.221055 
L 97.022338 275.716091 
L 104.752208 276.055899 
L 112.482078 276.123014 
L 120.211948 275.791589 
L 127.941818 277.817854 
L 135.671688 278.677863 
L 143.401558 279.865098 
L 151.131429 282.801721 
L 158.861299 284.144172 
L 166.591169 284.165144 
L 174.321039 285.784482 
L 182.050909 286.203998 
L 189.780779 286.229162 
L 197.510649 286.078133 
L 205.240519 292.463149 
L 212.97039 292.463149 
L 220.70026 288.767229 
L 228.43013 288.859507 
L 236.16 289.534926 
L 243.88987 290.172598 
L 251.61974 286.921337 
L 259.34961 286.061356 
L 267.079481 286.057157 
L 274.809351 289.232866 
L 282.539221 289.451023 
L 290.269091 289.304198 
L 297.998961 289.304194 
L 305.728831 291.787713 
L 313.458701 291.145864 
L 321.188571 291.032594 
L 328.918442 289.48038 
L 336.648312 289.258025 
L 344.378182 288.561649 
L 352.108052 286.577329 
L 359.837922 286.443087 
L 367.567792 287.282103 
L 375.297662 289.887299 
L 383.027532 289.509747 
L 390.757403 291.070338 
L 398.487273 291.842227 
" style="fill:none;opacity:0.5;stroke:#000000;stroke-linecap:square;stroke-width:1.5;"/>
    <defs>
     <path d="M 0 1.5 
C 0.397805 1.5 0.77937 1.341951 1.06066 1.06066 
C 1.341951 0.77937 1.5 0.397805 1.5 0 
C 1.5 -0.397805 1.341951 -0.77937 1.06066 -1.06066 
C 0.77937 -1.341951 0.397805 -1.5 0 -1.5 
C -0.397805 -1.5 -0.77937 -1.341951 -1.06066 -1.06066 
C -1.341951 -0.77937 -1.5 -0.397805 -1.5 0 
C -1.5 0.397805 -1.341951 0.77937 -1.06066 1.06066 
C -0.77937 1.341951 -0.397805 1.5 0 1.5 
z
" id="mf9fb6aace9" style="stroke:#000000;"/>
    </defs>
    <g clip-path="url(#pacc6f25be4)">
     <use style="opacity:0.5;stroke:#000000;" x="73.832727" xlink:href="#mf9fb6aace9" y="175.065855"/>
     <use style="opacity:0.5;stroke:#000000;" x="81.562597" xlink:href="#mf9fb6aace9" y="174.147116"/>
     <use style="opacity:0.5;stroke:#000000;" x="89.292468" xlink:href="#mf9fb6aace9" y="275.221055"/>
     <use style="opacity:0.5;stroke:#000000;" x="97.022338" xlink:href="#mf9fb6aace9" y="275.716091"/>
     <use style="opacity:0.5;stroke:#000000;" x="104.752208" xlink:href="#mf9fb6aace9" y="276.055899"/>
     <use style="opacity:0.5;stroke:#000000;" x="112.482078" xlink:href="#mf9fb6aace9" y="276.123014"/>
     <use style="opacity:0.5;stroke:#000000;" x="120.211948" xlink:href="#mf9fb6aace9" y="275.791589"/>
     <use style="opacity:0.5;stroke:#000000;" x="127.941818" xlink:href="#mf9fb6aace9" y="277.817854"/>
     <use style="opacity:0.5;stroke:#000000;" x="135.671688" xlink:href="#mf9fb6aace9" y="278.677863"/>
     <use style="opacity:0.5;stroke:#000000;" x="143.401558" xlink:href="#mf9fb6aace9" y="279.865098"/>
     <use style="opacity:0.5;stroke:#000000;" x="151.131429" xlink:href="#mf9fb6aace9" y="282.801721"/>
     <use style="opacity:0.5;stroke:#000000;" x="158.861299" xlink:href="#mf9fb6aace9" y="284.144172"/>
     <use style="opacity:0.5;stroke:#000000;" x="166.591169" xlink:href="#mf9fb6aace9" y="284.165144"/>
     <use style="opacity:0.5;stroke:#000000;" x="174.321039" xlink:href="#mf9fb6aace9" y="285.784482"/>
     <use style="opacity:0.5;stroke:#000000;" x="182.050909" xlink:href="#mf9fb6aace9" y="286.203998"/>
     <use style="opacity:0.5;stroke:#000000;" x="189.780779" xlink:href="#mf9fb6aace9" y="286.229162"/>
     <use style="opacity:0.5;stroke:#000000;" x="197.510649" xlink:href="#mf9fb6aace9" y="286.078133"/>
     <use style="opacity:0.5;stroke:#000000;" x="205.240519" xlink:href="#mf9fb6aace9" y="292.463149"/>
     <use style="opacity:0.5;stroke:#000000;" x="212.97039" xlink:href="#mf9fb6aace9" y="292.463149"/>
     <use style="opacity:0.5;stroke:#000000;" x="220.70026" xlink:href="#mf9fb6aace9" y="288.767229"/>
     <use style="opacity:0.5;stroke:#000000;" x="228.43013" xlink:href="#mf9fb6aace9" y="288.859507"/>
     <use style="opacity:0.5;stroke:#000000;" x="236.16" xlink:href="#mf9fb6aace9" y="289.534926"/>
     <use style="opacity:0.5;stroke:#000000;" x="243.88987" xlink:href="#mf9fb6aace9" y="290.172598"/>
     <use style="opacity:0.5;stroke:#000000;" x="251.61974" xlink:href="#mf9fb6aace9" y="286.921337"/>
     <use style="opacity:0.5;stroke:#000000;" x="259.34961" xlink:href="#mf9fb6aace9" y="286.061356"/>
     <use style="opacity:0.5;stroke:#000000;" x="267.079481" xlink:href="#mf9fb6aace9" y="286.057157"/>
     <use style="opacity:0.5;stroke:#000000;" x="274.809351" xlink:href="#mf9fb6aace9" y="289.232866"/>
     <use style="opacity:0.5;stroke:#000000;" x="282.539221" xlink:href="#mf9fb6aace9" y="289.451023"/>
     <use style="opacity:0.5;stroke:#000000;" x="290.269091" xlink:href="#mf9fb6aace9" y="289.304198"/>
     <use style="opacity:0.5;stroke:#000000;" x="297.998961" xlink:href="#mf9fb6aace9" y="289.304194"/>
     <use style="opacity:0.5;stroke:#000000;" x="305.728831" xlink:href="#mf9fb6aace9" y="291.787713"/>
     <use style="opacity:0.5;stroke:#000000;" x="313.458701" xlink:href="#mf9fb6aace9" y="291.145864"/>
     <use style="opacity:0.5;stroke:#000000;" x="321.188571" xlink:href="#mf9fb6aace9" y="291.032594"/>
     <use style="opacity:0.5;stroke:#000000;" x="328.918442" xlink:href="#mf9fb6aace9" y="289.48038"/>
     <use style="opacity:0.5;stroke:#000000;" x="336.648312" xlink:href="#mf9fb6aace9" y="289.258025"/>
     <use style="opacity:0.5;stroke:#000000;" x="344.378182" xlink:href="#mf9fb6aace9" y="288.561649"/>
     <use style="opacity:0.5;stroke:#000000;" x="352.108052" xlink:href="#mf9fb6aace9" y="286.577329"/>
     <use style="opacity:0.5;stroke:#000000;" x="359.837922" xlink:href="#mf9fb6aace9" y="286.443087"/>
     <use style="opacity:0.5;stroke:#000000;" x="367.567792" xlink:href="#mf9fb6aace9" y="287.282103"/>
     <use style="opacity:0.5;stroke:#000000;" x="375.297662" xlink:href="#mf9fb6aace9" y="289.887299"/>
     <use style="opacity:0.5;stroke:#000000;" x="383.027532" xlink:href="#mf9fb6aace9" y="289.509747"/>
     <use style="opacity:0.5;stroke:#000000;" x="390.757403" xlink:href="#mf9fb6aace9" y="291.070338"/>
     <use style="opacity:0.5;stroke:#000000;" x="398.487273" xlink:href="#mf9fb6aace9" y="291.842227"/>
    </g>
   </g>
   <g id="line2d_22">
    <defs>
     <path d="M 0 3 
C 0.795609 3 1.55874 2.683901 2.12132 2.12132 
C 2.683901 1.55874 3 0.795609 3 0 
C 3 -0.795609 2.683901 -1.55874 2.12132 -2.12132 
C 1.55874 -2.683901 0.795609 -3 0 -3 
C -0.795609 -3 -1.55874 -2.683901 -2.12132 -2.12132 
C -2.683901 -1.55874 -3 -0.795609 -3 0 
C -3 0.795609 -2.683901 1.55874 -2.12132 2.12132 
C -1.55874 2.683901 -0.795609 3 0 3 
z
" id="m72fa509bd8" style="stroke:#000000;"/>
    </defs>
    <g clip-path="url(#pacc6f25be4)">
     <use style="stroke:#000000;" x="212.97039" xlink:href="#m72fa509bd8" y="292.463149"/>
    </g>
   </g>
   <g id="line2d_23">
    <defs>
     <path d="M 0 -3 
L -3 3 
L 3 3 
z
" id="m02cc1bc7d4" style="stroke:#000000;stroke-linejoin:miter;"/>
    </defs>
    <g clip-path="url(#pacc6f25be4)">
     <use style="stroke:#000000;stroke-linejoin:miter;" x="205.240519" xlink:href="#m02cc1bc7d4" y="292.463149"/>
    </g>
   </g>
   <g id="patch_3">
    <path d="M 57.6 305.6616 
L 57.6 41.2128 
" style="fill:none;stroke:#000000;stroke-linecap:square;stroke-linejoin:miter;stroke-width:0.8;"/>
   </g>
   <g id="patch_4">
    <path d="M 414.72 305.6616 
L 414.72 41.2128 
" style="fill:none;stroke:#000000;stroke-linecap:square;stroke-linejoin:miter;stroke-width:0.8;"/>
   </g>
   <g id="patch_5">
    <path d="M 57.6 305.6616 
L 414.72 305.6616 
" style="fill:none;stroke:#000000;stroke-linecap:square;stroke-linejoin:miter;stroke-width:0.8;"/>
   </g>
   <g id="patch_6">
    <path d="M 57.6 41.2128 
L 414.72 41.2128 
" style="fill:none;stroke:#000000;stroke-linecap:square;stroke-linejoin:miter;stroke-width:0.8;"/>
   </g>
   <g id="legend_1">
    <g id="patch_7">
     <path d="M 293.66375 122.603425 
L 407.72 122.603425 
Q 409.72 122.603425 409.72 120.603425 
L 409.72 48.2128 
Q 409.72 46.2128 407.72 46.2128 
L 293.66375 46.2128 
Q 291.66375 46.2128 291.66375 48.2128 
L 291.66375 120.603425 
Q 291.66375 122.603425 293.66375 122.603425 
z
" style="fill:#ffffff;opacity:0.8;stroke:#cccccc;stroke-linejoin:miter;"/>
    </g>
    <g id="line2d_24">
     <path d="M 295.66375 54.311238 
L 315.66375 54.311238 
" style="fill:none;opacity:0.5;stroke:#ff0000;stroke-linecap:square;stroke-width:1.5;"/>
    </g>
    <g id="line2d_25"/>
    <g id="text_14">
     <!-- MLPC BER mean -->
     <defs>
      <path d="M 9.8125 72.90625 
L 24.515625 72.90625 
L 43.109375 23.296875 
L 61.8125 72.90625 
L 76.515625 72.90625 
L 76.515625 0 
L 66.890625 0 
L 66.890625 64.015625 
L 48.09375 14.015625 
L 38.1875 14.015625 
L 19.390625 64.015625 
L 19.390625 0 
L 9.8125 0 
z
" id="DejaVuSans-4d"/>
      <path d="M 9.8125 72.90625 
L 19.671875 72.90625 
L 19.671875 8.296875 
L 55.171875 8.296875 
L 55.171875 0 
L 9.8125 0 
z
" id="DejaVuSans-4c"/>
      <path d="M 19.671875 64.796875 
L 19.671875 37.40625 
L 32.078125 37.40625 
Q 38.96875 37.40625 42.71875 40.96875 
Q 46.484375 44.53125 46.484375 51.125 
Q 46.484375 57.671875 42.71875 61.234375 
Q 38.96875 64.796875 32.078125 64.796875 
z
M 9.8125 72.90625 
L 32.078125 72.90625 
Q 44.34375 72.90625 50.609375 67.359375 
Q 56.890625 61.8125 56.890625 51.125 
Q 56.890625 40.328125 50.609375 34.8125 
Q 44.34375 29.296875 32.078125 29.296875 
L 19.671875 29.296875 
L 19.671875 0 
L 9.8125 0 
z
" id="DejaVuSans-50"/>
      <path d="M 64.40625 67.28125 
L 64.40625 56.890625 
Q 59.421875 61.53125 53.78125 63.8125 
Q 48.140625 66.109375 41.796875 66.109375 
Q 29.296875 66.109375 22.65625 58.46875 
Q 16.015625 50.828125 16.015625 36.375 
Q 16.015625 21.96875 22.65625 14.328125 
Q 29.296875 6.6875 41.796875 6.6875 
Q 48.140625 6.6875 53.78125 8.984375 
Q 59.421875 11.28125 64.40625 15.921875 
L 64.40625 5.609375 
Q 59.234375 2.09375 53.4375 0.328125 
Q 47.65625 -1.421875 41.21875 -1.421875 
Q 24.65625 -1.421875 15.125 8.703125 
Q 5.609375 18.84375 5.609375 36.375 
Q 5.609375 53.953125 15.125 64.078125 
Q 24.65625 74.21875 41.21875 74.21875 
Q 47.75 74.21875 53.53125 72.484375 
Q 59.328125 70.75 64.40625 67.28125 
z
" id="DejaVuSans-43"/>
      <path d="M 54.890625 33.015625 
L 54.890625 0 
L 45.90625 0 
L 45.90625 32.71875 
Q 45.90625 40.484375 42.875 44.328125 
Q 39.84375 48.1875 33.796875 48.1875 
Q 26.515625 48.1875 22.3125 43.546875 
Q 18.109375 38.921875 18.109375 30.90625 
L 18.109375 0 
L 9.078125 0 
L 9.078125 54.6875 
L 18.109375 54.6875 
L 18.109375 46.1875 
Q 21.34375 51.125 25.703125 53.5625 
Q 30.078125 56 35.796875 56 
Q 45.21875 56 50.046875 50.171875 
Q 54.890625 44.34375 54.890625 33.015625 
z
" id="DejaVuSans-6e"/>
     </defs>
     <g transform="translate(323.66375 57.811238)scale(0.1 -0.1)">
      <use xlink:href="#DejaVuSans-4d"/>
      <use x="86.279297" xlink:href="#DejaVuSans-4c"/>
      <use x="141.992188" xlink:href="#DejaVuSans-50"/>
      <use x="202.294922" xlink:href="#DejaVuSans-43"/>
      <use x="272.119141" xlink:href="#DejaVuSans-20"/>
      <use x="303.90625" xlink:href="#DejaVuSans-42"/>
      <use x="372.509766" xlink:href="#DejaVuSans-45"/>
      <use x="435.693359" xlink:href="#DejaVuSans-52"/>
      <use x="505.175781" xlink:href="#DejaVuSans-20"/>
      <use x="536.962891" xlink:href="#DejaVuSans-6d"/>
      <use x="634.375" xlink:href="#DejaVuSans-65"/>
      <use x="695.898438" xlink:href="#DejaVuSans-61"/>
      <use x="757.177734" xlink:href="#DejaVuSans-6e"/>
     </g>
    </g>
    <g id="line2d_26">
     <path d="M 295.66375 68.989363 
L 315.66375 68.989363 
" style="fill:none;opacity:0.5;stroke:#0000ff;stroke-linecap:square;stroke-width:1.5;"/>
    </g>
    <g id="line2d_27"/>
    <g id="text_15">
     <!-- Log BER mean -->
     <defs>
      <path d="M 45.40625 27.984375 
Q 45.40625 37.75 41.375 43.109375 
Q 37.359375 48.484375 30.078125 48.484375 
Q 22.859375 48.484375 18.828125 43.109375 
Q 14.796875 37.75 14.796875 27.984375 
Q 14.796875 18.265625 18.828125 12.890625 
Q 22.859375 7.515625 30.078125 7.515625 
Q 37.359375 7.515625 41.375 12.890625 
Q 45.40625 18.265625 45.40625 27.984375 
z
M 54.390625 6.78125 
Q 54.390625 -7.171875 48.1875 -13.984375 
Q 42 -20.796875 29.203125 -20.796875 
Q 24.46875 -20.796875 20.265625 -20.09375 
Q 16.0625 -19.390625 12.109375 -17.921875 
L 12.109375 -9.1875 
Q 16.0625 -11.328125 19.921875 -12.34375 
Q 23.78125 -13.375 27.78125 -13.375 
Q 36.625 -13.375 41.015625 -8.765625 
Q 45.40625 -4.15625 45.40625 5.171875 
L 45.40625 9.625 
Q 42.625 4.78125 38.28125 2.390625 
Q 33.9375 0 27.875 0 
Q 17.828125 0 11.671875 7.65625 
Q 5.515625 15.328125 5.515625 27.984375 
Q 5.515625 40.671875 11.671875 48.328125 
Q 17.828125 56 27.875 56 
Q 33.9375 56 38.28125 53.609375 
Q 42.625 51.21875 45.40625 46.390625 
L 45.40625 54.6875 
L 54.390625 54.6875 
z
" id="DejaVuSans-67"/>
     </defs>
     <g transform="translate(323.66375 72.489363)scale(0.1 -0.1)">
      <use xlink:href="#DejaVuSans-4c"/>
      <use x="55.697266" xlink:href="#DejaVuSans-6f"/>
      <use x="116.878906" xlink:href="#DejaVuSans-67"/>
      <use x="180.355469" xlink:href="#DejaVuSans-20"/>
      <use x="212.142578" xlink:href="#DejaVuSans-42"/>
      <use x="280.746094" xlink:href="#DejaVuSans-45"/>
      <use x="343.929688" xlink:href="#DejaVuSans-52"/>
      <use x="413.412109" xlink:href="#DejaVuSans-20"/>
      <use x="445.199219" xlink:href="#DejaVuSans-6d"/>
      <use x="542.611328" xlink:href="#DejaVuSans-65"/>
      <use x="604.134766" xlink:href="#DejaVuSans-61"/>
      <use x="665.414062" xlink:href="#DejaVuSans-6e"/>
     </g>
    </g>
    <g id="line2d_28">
     <path d="M 295.66375 83.667487 
L 315.66375 83.667487 
" style="fill:none;opacity:0.5;stroke:#008000;stroke-linecap:square;stroke-width:1.5;"/>
    </g>
    <g id="line2d_29"/>
    <g id="text_16">
     <!-- Ada BER mean -->
     <defs>
      <path d="M 34.1875 63.1875 
L 20.796875 26.90625 
L 47.609375 26.90625 
z
M 28.609375 72.90625 
L 39.796875 72.90625 
L 67.578125 0 
L 57.328125 0 
L 50.6875 18.703125 
L 17.828125 18.703125 
L 11.1875 0 
L 0.78125 0 
z
" id="DejaVuSans-41"/>
      <path d="M 45.40625 46.390625 
L 45.40625 75.984375 
L 54.390625 75.984375 
L 54.390625 0 
L 45.40625 0 
L 45.40625 8.203125 
Q 42.578125 3.328125 38.25 0.953125 
Q 33.9375 -1.421875 27.875 -1.421875 
Q 17.96875 -1.421875 11.734375 6.484375 
Q 5.515625 14.40625 5.515625 27.296875 
Q 5.515625 40.1875 11.734375 48.09375 
Q 17.96875 56 27.875 56 
Q 33.9375 56 38.25 53.625 
Q 42.578125 51.265625 45.40625 46.390625 
z
M 14.796875 27.296875 
Q 14.796875 17.390625 18.875 11.75 
Q 22.953125 6.109375 30.078125 6.109375 
Q 37.203125 6.109375 41.296875 11.75 
Q 45.40625 17.390625 45.40625 27.296875 
Q 45.40625 37.203125 41.296875 42.84375 
Q 37.203125 48.484375 30.078125 48.484375 
Q 22.953125 48.484375 18.875 42.84375 
Q 14.796875 37.203125 14.796875 27.296875 
z
" id="DejaVuSans-64"/>
     </defs>
     <g transform="translate(323.66375 87.167487)scale(0.1 -0.1)">
      <use xlink:href="#DejaVuSans-41"/>
      <use x="68.392578" xlink:href="#DejaVuSans-64"/>
      <use x="131.869141" xlink:href="#DejaVuSans-61"/>
      <use x="193.148438" xlink:href="#DejaVuSans-20"/>
      <use x="224.935547" xlink:href="#DejaVuSans-42"/>
      <use x="293.539062" xlink:href="#DejaVuSans-45"/>
      <use x="356.722656" xlink:href="#DejaVuSans-52"/>
      <use x="426.205078" xlink:href="#DejaVuSans-20"/>
      <use x="457.992188" xlink:href="#DejaVuSans-6d"/>
      <use x="555.404297" xlink:href="#DejaVuSans-65"/>
      <use x="616.927734" xlink:href="#DejaVuSans-61"/>
      <use x="678.207031" xlink:href="#DejaVuSans-6e"/>
     </g>
    </g>
    <g id="line2d_30">
     <path d="M 295.66375 98.345613 
L 315.66375 98.345613 
" style="fill:none;opacity:0.5;stroke:#000000;stroke-linecap:square;stroke-width:1.5;"/>
    </g>
    <g id="line2d_31">
     <g>
      <use style="opacity:0.5;stroke:#000000;" x="305.66375" xlink:href="#mf9fb6aace9" y="98.345613"/>
     </g>
    </g>
    <g id="text_17">
     <!-- XGB BER mean -->
     <defs>
      <path d="M 6.296875 72.90625 
L 16.890625 72.90625 
L 35.015625 45.796875 
L 53.21875 72.90625 
L 63.8125 72.90625 
L 40.375 37.890625 
L 65.375 0 
L 54.78125 0 
L 34.28125 31 
L 13.625 0 
L 2.984375 0 
L 29 38.921875 
z
" id="DejaVuSans-58"/>
      <path d="M 59.515625 10.40625 
L 59.515625 29.984375 
L 43.40625 29.984375 
L 43.40625 38.09375 
L 69.28125 38.09375 
L 69.28125 6.78125 
Q 63.578125 2.734375 56.6875 0.65625 
Q 49.8125 -1.421875 42 -1.421875 
Q 24.90625 -1.421875 15.25 8.5625 
Q 5.609375 18.5625 5.609375 36.375 
Q 5.609375 54.25 15.25 64.234375 
Q 24.90625 74.21875 42 74.21875 
Q 49.125 74.21875 55.546875 72.453125 
Q 61.96875 70.703125 67.390625 67.28125 
L 67.390625 56.78125 
Q 61.921875 61.421875 55.765625 63.765625 
Q 49.609375 66.109375 42.828125 66.109375 
Q 29.4375 66.109375 22.71875 58.640625 
Q 16.015625 51.171875 16.015625 36.375 
Q 16.015625 21.625 22.71875 14.15625 
Q 29.4375 6.6875 42.828125 6.6875 
Q 48.046875 6.6875 52.140625 7.59375 
Q 56.25 8.5 59.515625 10.40625 
z
" id="DejaVuSans-47"/>
     </defs>
     <g transform="translate(323.66375 101.845613)scale(0.1 -0.1)">
      <use xlink:href="#DejaVuSans-58"/>
      <use x="68.505859" xlink:href="#DejaVuSans-47"/>
      <use x="145.996094" xlink:href="#DejaVuSans-42"/>
      <use x="214.599609" xlink:href="#DejaVuSans-20"/>
      <use x="246.386719" xlink:href="#DejaVuSans-42"/>
      <use x="314.990234" xlink:href="#DejaVuSans-45"/>
      <use x="378.173828" xlink:href="#DejaVuSans-52"/>
      <use x="447.65625" xlink:href="#DejaVuSans-20"/>
      <use x="479.443359" xlink:href="#DejaVuSans-6d"/>
      <use x="576.855469" xlink:href="#DejaVuSans-65"/>
      <use x="638.378906" xlink:href="#DejaVuSans-61"/>
      <use x="699.658203" xlink:href="#DejaVuSans-6e"/>
     </g>
    </g>
    <g id="patch_8">
     <path d="M 295.66375 116.523738 
L 315.66375 116.523738 
L 315.66375 109.523738 
L 295.66375 109.523738 
z
" style="fill:#808080;opacity:0.5;stroke:#808080;stroke-linejoin:miter;"/>
    </g>
    <g id="text_18">
     <!-- BER STD -->
     <defs>
      <path d="M 53.515625 70.515625 
L 53.515625 60.890625 
Q 47.90625 63.578125 42.921875 64.890625 
Q 37.9375 66.21875 33.296875 66.21875 
Q 25.25 66.21875 20.875 63.09375 
Q 16.5 59.96875 16.5 54.203125 
Q 16.5 49.359375 19.40625 46.890625 
Q 22.3125 44.4375 30.421875 42.921875 
L 36.375 41.703125 
Q 47.40625 39.59375 52.65625 34.296875 
Q 57.90625 29 57.90625 20.125 
Q 57.90625 9.515625 50.796875 4.046875 
Q 43.703125 -1.421875 29.984375 -1.421875 
Q 24.8125 -1.421875 18.96875 -0.25 
Q 13.140625 0.921875 6.890625 3.21875 
L 6.890625 13.375 
Q 12.890625 10.015625 18.65625 8.296875 
Q 24.421875 6.59375 29.984375 6.59375 
Q 38.421875 6.59375 43.015625 9.90625 
Q 47.609375 13.234375 47.609375 19.390625 
Q 47.609375 24.75 44.3125 27.78125 
Q 41.015625 30.8125 33.5 32.328125 
L 27.484375 33.5 
Q 16.453125 35.6875 11.515625 40.375 
Q 6.59375 45.0625 6.59375 53.421875 
Q 6.59375 63.09375 13.40625 68.65625 
Q 20.21875 74.21875 32.171875 74.21875 
Q 37.3125 74.21875 42.625 73.28125 
Q 47.953125 72.359375 53.515625 70.515625 
z
" id="DejaVuSans-53"/>
      <path d="M -0.296875 72.90625 
L 61.375 72.90625 
L 61.375 64.59375 
L 35.5 64.59375 
L 35.5 0 
L 25.59375 0 
L 25.59375 64.59375 
L -0.296875 64.59375 
z
" id="DejaVuSans-54"/>
      <path d="M 19.671875 64.796875 
L 19.671875 8.109375 
L 31.59375 8.109375 
Q 46.6875 8.109375 53.6875 14.9375 
Q 60.6875 21.78125 60.6875 36.53125 
Q 60.6875 51.171875 53.6875 57.984375 
Q 46.6875 64.796875 31.59375 64.796875 
z
M 9.8125 72.90625 
L 30.078125 72.90625 
Q 51.265625 72.90625 61.171875 64.09375 
Q 71.09375 55.28125 71.09375 36.53125 
Q 71.09375 17.671875 61.125 8.828125 
Q 51.171875 0 30.078125 0 
L 9.8125 0 
z
" id="DejaVuSans-44"/>
     </defs>
     <g transform="translate(323.66375 116.523738)scale(0.1 -0.1)">
      <use xlink:href="#DejaVuSans-42"/>
      <use x="68.603516" xlink:href="#DejaVuSans-45"/>
      <use x="131.787109" xlink:href="#DejaVuSans-52"/>
      <use x="201.269531" xlink:href="#DejaVuSans-20"/>
      <use x="233.056641" xlink:href="#DejaVuSans-53"/>
      <use x="296.533203" xlink:href="#DejaVuSans-54"/>
      <use x="357.617188" xlink:href="#DejaVuSans-44"/>
     </g>
    </g>
   </g>
  </g>
 </g>
 <defs>
  <clipPath id="pacc6f25be4">
   <rect height="264.4488" width="357.12" x="57.6" y="41.2128"/>
  </clipPath>
 </defs>
</svg>
